<svg viewBox="0 0 32 32" xmlns="http://www.w3.org/2000/svg" aria-hidden="true" focusable="false">
  <path fill="#F8FAFC" d="M16.001 3C9.096 3 3.5 8.596 3.5 15.5c0 2.373.656 4.59 1.795 6.487L3 29l7.2-2.257A12.44 12.44 0 0 0 16 28.5c6.905 0 12.5-5.596 12.5-12.5S22.906 3 16.001 3Zm0 22.7a10.16 10.16 0 0 1-5.19-1.42l-.372-.222-4.27 1.34 1.36-4.163-.242-.386a10.144 10.144 0 0 1-1.586-5.35c0-5.612 4.567-10.18 10.3-10.18 5.612 0 10.18 4.568 10.18 10.18 0 5.734-4.568 10.202-10.18 10.202Zm5.586-7.638c-.306-.153-1.81-.892-2.09-.994-.28-.102-.484-.153-.688.154-.204.306-.79.993-.968 1.198-.178.204-.357.23-.663.077-.306-.153-1.293-.477-2.462-1.52-.91-.812-1.524-1.815-1.703-2.12-.178-.307-.019-.472.134-.624.138-.137.306-.357.459-.535.153-.179.204-.307.306-.51.102-.205.05-.384-.026-.537-.077-.153-.688-1.657-.943-2.27-.248-.596-.5-.515-.688-.524l-.586-.01c-.204 0-.535.076-.815.383-.28.306-1.068 1.044-1.068 2.548 0 1.503 1.093 2.956 1.246 3.161.153.204 2.152 3.286 5.214 4.607.729.315 1.297.503 1.741.643.732.233 1.398.2 1.925.121.587-.088 1.809-.74 2.064-1.454.255-.715.255-1.327.178-1.454-.077-.128-.28-.204-.586-.357Z"/>
</svg>
